<svg width="24" height="24" viewBox="0 0 24 24" fill="none" xmlns="http://www.w3.org/2000/svg">
<g clip-path="url(#clip0_113_38)">
<path d="M23.6 7H18.8V4C18.8 1.791 16.6508 0 14 0C11.3492 0 9.2 1.791 9.2 4V7H4.4L2 24H26L23.6 7ZM10.4 4C10.4 2.346 12.0152 1 14 1C15.9848 1 17.6 2.346 17.6 4V7H10.4V4ZM4.6988 22L6.5336 9H9.2V10.5C9.2 10.776 9.4688 11 9.8 11C10.1312 11 10.4 10.776 10.4 10.5V9H17.6V10.5C17.6 10.776 17.8688 11 18.2 11C18.5312 11 18.8 10.776 18.8 10.5V9H21.4664L23.3012 22H4.6988Z" fill="black"/>
</g>
<defs>
<clipPath id="clip0_113_38">
<rect width="24" height="24" fill="white"/>
</clipPath>
</defs>
</svg>
